<svg width="200" height="200" viewBox="0 0 200 200" fill="none" xmlns="http://www.w3.org/2000/svg">
<rect width="200" height="200" rx="32" fill="white"/>
<path d="M141.656 162.363C129.738 170.344 115.406 175 100 175C58.6062 175 25 141.394 25 100C25 58.6062 58.6062 25 100 25C141.394 25 175 58.6062 175 100C175 122.394 165.163 142.506 149.581 156.256L82.6187 70H70V129.975H80.0937V82.8188L141.656 162.363ZM120.831 109.031L130.831 121.912V70H120.831V109.031Z" fill="black"/>
<rect x="115" y="119" width="70" height="70" rx="35" fill="white"/>
<path d="M134.505 169.5V146.73H127.755V142.815H130.5C131.7 142.815 132.675 142.665 133.425 142.365C134.175 142.035 134.715 141.495 135.045 140.745C135.375 139.965 135.54 138.9 135.54 137.55H139.365V169.5H134.505ZM158.636 170.22C156.266 170.22 154.241 169.845 152.561 169.095C150.881 168.315 149.561 167.235 148.601 165.855C147.641 164.475 147.086 162.885 146.936 161.085L151.931 160.77C152.171 162.45 152.876 163.71 154.046 164.55C155.246 165.36 156.776 165.765 158.636 165.765C160.736 165.765 162.386 165.18 163.586 164.01C164.816 162.84 165.431 161.205 165.431 159.105C165.431 157.725 165.146 156.54 164.576 155.55C164.036 154.53 163.256 153.75 162.236 153.21C161.216 152.64 160.001 152.355 158.591 152.355C157.181 152.355 155.921 152.655 154.811 153.255C153.701 153.855 152.906 154.68 152.426 155.73H147.386L149.546 137.55H168.266V142.005H153.866L152.516 152.94L151.751 152.265C152.261 151.365 152.906 150.63 153.686 150.06C154.466 149.46 155.366 149.01 156.386 148.71C157.436 148.38 158.546 148.215 159.716 148.215C161.876 148.215 163.751 148.68 165.341 149.61C166.961 150.54 168.221 151.83 169.121 153.48C170.021 155.13 170.471 157.005 170.471 159.105C170.471 161.295 169.976 163.23 168.986 164.91C167.996 166.59 166.616 167.895 164.846 168.825C163.076 169.755 161.006 170.22 158.636 170.22Z" fill="black"/>
</svg>
